<svg id="svg" version="1.1" xmlns="http://www.w3.org/2000/svg" xmlns:xlink="http://www.w3.org/1999/xlink" width="400" height="156.6" viewBox="0, 0, 400,156.6"><g id="svgg"><path id="path0" d="M9.587 13.789 C 9.130 13.825,8.717 13.907,8.670 13.972 C 8.584 14.088,7.276 14.499,6.875 14.536 C 6.760 14.547,6.667 14.622,6.667 14.704 C 6.667 14.786,6.598 14.810,6.513 14.758 C 6.429 14.706,6.250 14.773,6.116 14.908 C 5.982 15.042,5.570 15.309,5.200 15.502 C 4.831 15.695,4.487 15.960,4.436 16.093 C 4.385 16.225,4.239 16.333,4.112 16.333 C 3.826 16.333,2.698 17.635,2.344 18.373 C 2.201 18.672,1.959 19.104,1.808 19.333 C 1.502 19.795,1.254 21.000,1.317 21.708 C 1.346 22.032,1.281 22.167,1.096 22.167 C 0.857 22.167,0.837 27.528,0.875 80.792 L 0.916 139.417 1.000 80.833 L 1.084 22.250 1.125 80.875 C 1.153 119.875,1.111 139.500,1.000 139.500 C 0.908 139.500,0.833 139.575,0.833 139.667 C 0.833 139.758,0.955 139.833,1.103 139.833 C 1.302 139.833,1.351 139.945,1.291 140.260 C 1.192 140.774,1.643 142.667,1.864 142.667 C 1.949 142.667,1.973 142.742,1.917 142.833 C 1.860 142.925,1.886 143.000,1.974 143.000 C 2.062 143.000,2.212 143.225,2.308 143.500 C 2.404 143.775,2.574 144.000,2.686 144.000 C 2.797 144.000,2.843 144.046,2.788 144.101 C 2.732 144.157,2.870 144.401,3.095 144.643 C 3.320 144.885,3.548 145.221,3.601 145.390 C 3.662 145.581,3.809 145.668,3.990 145.621 C 4.157 145.577,4.364 145.677,4.475 145.856 C 4.582 146.027,4.763 146.168,4.876 146.170 C 4.990 146.171,5.247 146.345,5.446 146.556 C 5.646 146.766,6.115 147.040,6.488 147.163 C 6.861 147.286,7.167 147.442,7.167 147.509 C 7.167 148.088,9.781 148.167,28.968 148.167 C 47.916 148.167,49.132 148.133,49.583 147.591 C 49.675 147.481,50.054 147.258,50.426 147.095 C 50.967 146.857,51.179 146.627,51.492 145.941 C 51.707 145.469,51.965 145.030,52.066 144.964 C 52.347 144.783,52.323 131.969,52.042 131.875 C 51.927 131.837,51.833 131.702,51.833 131.575 C 51.833 130.986,51.117 130.002,50.486 129.724 C 50.127 129.565,49.833 129.381,49.833 129.313 C 49.833 128.735,48.241 128.667,34.849 128.667 L 21.667 128.667 21.667 81.000 L 21.667 33.333 35.083 33.333 C 43.917 33.333,48.500 33.276,48.500 33.167 C 48.500 33.075,48.610 33.000,48.746 33.000 C 49.884 33.000,51.833 31.256,51.833 30.238 C 51.833 30.123,51.927 29.997,52.042 29.958 C 52.203 29.904,52.250 28.493,52.250 23.653 L 52.250 17.417 51.797 16.519 C 51.251 15.439,50.373 14.619,49.439 14.319 C 49.060 14.197,48.696 14.019,48.631 13.924 C 48.517 13.757,11.593 13.629,9.587 13.789 M82.625 13.787 C 81.731 13.819,81.000 13.918,81.000 14.006 C 81.000 14.094,80.713 14.167,80.363 14.167 C 79.445 14.167,76.593 14.676,76.528 14.851 C 76.497 14.933,76.291 14.954,76.070 14.898 C 75.848 14.843,75.667 14.866,75.667 14.950 C 75.667 15.102,73.699 15.772,73.458 15.703 C 73.390 15.683,73.333 15.735,73.333 15.818 C 73.333 15.901,73.183 15.930,73.000 15.882 C 72.817 15.834,72.667 15.867,72.667 15.955 C 72.667 16.044,72.217 16.295,71.667 16.514 C 71.117 16.732,70.667 16.968,70.667 17.039 C 70.667 17.109,70.498 17.168,70.292 17.170 C 70.085 17.172,69.729 17.321,69.500 17.500 C 69.271 17.679,68.990 17.828,68.875 17.830 C 68.760 17.832,68.667 17.900,68.667 17.981 C 68.667 18.062,68.408 18.252,68.091 18.402 C 67.775 18.552,67.417 18.767,67.297 18.879 C 67.177 18.991,66.789 19.231,66.435 19.412 C 66.081 19.593,65.546 19.987,65.246 20.287 C 64.946 20.588,64.661 20.833,64.614 20.833 C 64.279 20.833,60.833 24.283,60.833 24.619 C 60.833 24.665,60.515 25.034,60.125 25.439 C 59.033 26.573,58.945 26.691,58.502 27.626 C 58.274 28.107,58.026 28.500,57.951 28.500 C 57.875 28.500,57.860 28.575,57.917 28.667 C 57.973 28.758,57.952 28.833,57.870 28.833 C 57.787 28.833,57.617 29.146,57.491 29.529 C 57.364 29.911,57.100 30.385,56.904 30.581 C 56.707 30.778,56.450 31.234,56.332 31.594 C 56.215 31.955,56.067 32.287,56.005 32.333 C 55.855 32.443,55.391 33.908,55.239 34.750 C 55.173 35.117,55.062 35.454,54.993 35.500 C 54.516 35.815,54.276 39.411,54.207 47.250 C 54.168 51.649,54.077 55.287,54.006 55.333 C 53.783 55.476,53.620 56.500,53.820 56.500 C 53.919 56.500,54.000 56.610,54.000 56.745 C 54.000 56.908,53.903 56.953,53.708 56.880 C 53.453 56.785,53.445 56.806,53.645 57.052 C 53.840 57.291,53.839 57.333,53.641 57.333 C 53.399 57.333,53.069 57.678,52.708 58.304 C 52.594 58.504,52.406 58.825,52.292 59.018 C 52.177 59.212,51.572 59.868,50.946 60.477 C 50.321 61.085,49.099 62.277,48.231 63.125 C 47.363 63.973,46.600 64.668,46.535 64.670 C 46.470 64.672,45.711 65.385,44.849 66.254 C 43.986 67.122,43.219 67.833,43.143 67.833 C 43.068 67.833,42.304 68.527,41.446 69.375 C 40.588 70.223,39.649 71.122,39.360 71.372 C 39.070 71.623,38.833 71.909,38.833 72.007 C 38.833 72.106,38.758 72.140,38.667 72.083 C 38.575 72.027,38.500 72.092,38.500 72.229 C 38.500 72.366,38.350 72.525,38.167 72.583 C 37.983 72.642,37.833 72.801,37.833 72.938 C 37.833 73.074,37.758 73.140,37.667 73.083 C 37.575 73.027,37.500 73.097,37.500 73.240 C 37.500 73.383,37.436 73.500,37.359 73.500 C 37.143 73.500,36.500 74.099,36.500 74.300 C 36.500 74.398,36.350 74.525,36.167 74.583 C 35.983 74.642,35.833 74.801,35.833 74.938 C 35.833 75.074,35.776 75.151,35.705 75.107 C 35.531 74.999,34.574 76.896,34.309 77.875 C 34.191 78.310,34.035 78.667,33.964 78.667 C 33.892 78.667,33.833 79.679,33.833 80.917 C 33.833 82.154,33.894 83.167,33.968 83.167 C 34.042 83.167,34.239 83.692,34.405 84.333 C 34.571 84.975,34.778 85.500,34.864 85.500 C 34.949 85.500,34.973 85.575,34.917 85.667 C 34.860 85.758,34.892 85.833,34.987 85.833 C 35.082 85.833,35.208 86.022,35.266 86.253 C 35.323 86.483,35.550 86.813,35.769 86.985 C 35.988 87.157,36.167 87.373,36.167 87.464 C 36.167 87.653,36.665 87.907,36.917 87.846 C 37.008 87.824,37.027 87.862,36.958 87.931 C 36.889 88.000,37.527 88.723,38.375 89.539 C 39.223 90.355,40.599 91.692,41.432 92.511 C 42.266 93.330,42.998 94.000,43.059 94.000 C 43.121 94.000,43.864 94.674,44.710 95.499 C 48.626 99.311,49.880 100.500,49.983 100.500 C 50.143 100.500,51.833 102.234,51.833 102.398 C 51.833 102.474,52.019 102.682,52.247 102.861 C 52.474 103.039,52.647 103.238,52.630 103.301 C 52.573 103.522,52.857 104.167,53.011 104.167 C 53.097 104.167,53.167 104.288,53.167 104.436 C 53.167 104.623,53.268 104.679,53.500 104.618 C 53.721 104.560,53.833 104.613,53.833 104.775 C 53.833 104.910,53.758 104.973,53.667 104.917 C 53.575 104.860,53.500 104.893,53.500 104.990 C 53.500 105.087,53.612 105.167,53.750 105.167 C 53.887 105.167,54.000 105.242,54.000 105.333 C 54.000 105.425,53.924 105.500,53.830 105.500 C 53.728 105.500,53.706 105.682,53.775 105.955 C 53.837 106.206,53.889 106.506,53.889 106.622 C 53.889 106.738,53.951 106.833,54.028 106.833 C 54.104 106.833,54.167 109.852,54.168 113.542 C 54.170 121.123,54.506 126.333,54.994 126.333 C 55.065 126.333,55.174 126.652,55.235 127.042 C 55.394 128.051,55.874 129.545,56.122 129.804 C 56.238 129.925,56.333 130.157,56.333 130.320 C 56.333 130.653,56.866 131.333,57.126 131.333 C 57.220 131.333,57.292 131.427,57.286 131.542 C 57.265 131.955,57.545 132.833,57.697 132.833 C 57.783 132.833,57.806 132.909,57.749 133.001 C 57.692 133.093,57.752 133.210,57.882 133.260 C 58.013 133.310,58.216 133.645,58.335 134.004 C 58.453 134.364,58.689 134.807,58.859 134.989 C 59.028 135.171,59.167 135.379,59.167 135.451 C 59.168 135.524,59.693 136.131,60.334 136.800 C 60.975 137.469,61.500 138.086,61.500 138.172 C 61.500 138.344,63.307 140.167,63.478 140.167 C 63.537 140.167,64.066 140.617,64.653 141.167 C 65.240 141.717,65.818 142.167,65.938 142.167 C 66.057 142.167,66.235 142.317,66.333 142.500 C 66.431 142.683,66.624 142.833,66.762 142.833 C 67.027 142.833,67.754 143.256,68.160 143.646 C 68.294 143.774,68.650 143.983,68.952 144.109 C 69.253 144.235,69.500 144.405,69.500 144.487 C 69.500 144.569,69.920 144.768,70.433 144.929 C 70.946 145.090,71.458 145.315,71.571 145.428 C 71.793 145.650,72.892 146.051,73.824 146.251 C 74.140 146.319,74.494 146.470,74.611 146.587 C 74.729 146.705,75.558 146.932,76.454 147.092 C 77.350 147.252,78.121 147.439,78.167 147.508 C 78.704 148.315,102.194 148.431,102.690 147.629 C 102.755 147.524,103.133 147.310,103.529 147.156 C 103.944 146.994,104.275 146.747,104.310 146.574 C 104.342 146.409,104.474 146.169,104.601 146.042 C 104.729 145.914,104.833 145.709,104.833 145.585 C 104.833 145.462,104.912 145.335,105.009 145.303 C 105.823 145.031,105.697 131.841,104.873 131.016 C 104.744 130.887,104.571 130.604,104.489 130.388 C 104.407 130.171,104.157 129.925,103.933 129.840 C 103.710 129.755,103.465 129.584,103.388 129.461 C 103.000 128.831,102.191 128.773,92.452 128.677 C 85.692 128.610,82.954 128.530,82.869 128.395 C 82.803 128.292,82.300 128.112,81.750 127.997 C 81.200 127.882,80.625 127.648,80.473 127.477 C 80.321 127.306,80.119 127.167,80.024 127.167 C 79.744 127.167,78.601 126.453,78.366 126.131 C 78.246 125.967,78.038 125.833,77.903 125.833 C 77.769 125.833,77.582 125.627,77.488 125.375 C 77.395 125.123,77.192 124.821,77.038 124.704 C 76.883 124.587,76.633 124.174,76.481 123.787 C 76.303 123.333,76.095 123.075,75.894 123.059 C 75.723 123.046,75.518 123.027,75.438 123.018 C 75.358 123.008,75.386 122.888,75.500 122.750 C 75.641 122.580,75.648 122.500,75.522 122.500 C 75.421 122.500,75.348 122.369,75.362 122.208 C 75.409 121.638,75.331 121.148,75.205 121.226 C 75.135 121.270,75.105 121.012,75.139 120.653 C 75.178 120.250,75.131 120.000,75.018 120.000 C 74.886 120.000,74.832 117.872,74.828 112.542 C 74.824 106.962,74.763 104.684,74.585 103.500 C 74.220 101.067,74.135 100.667,73.978 100.667 C 73.899 100.667,73.834 100.498,73.834 100.292 C 73.835 99.748,73.144 97.500,72.976 97.500 C 72.897 97.500,72.833 97.355,72.833 97.179 C 72.833 97.002,72.721 96.745,72.583 96.607 C 72.446 96.470,72.333 96.277,72.333 96.179 C 72.333 96.080,72.254 96.000,72.157 96.000 C 72.060 96.000,72.027 95.925,72.083 95.833 C 72.140 95.742,72.107 95.667,72.009 95.667 C 71.912 95.667,71.741 95.326,71.629 94.909 C 71.518 94.492,71.300 94.015,71.145 93.849 C 70.991 93.683,70.698 93.222,70.496 92.826 C 70.294 92.429,70.018 91.994,69.883 91.860 C 69.749 91.725,69.572 91.439,69.490 91.223 C 69.408 91.007,69.283 90.843,69.212 90.859 C 68.933 90.919,68.526 90.627,68.604 90.423 C 68.650 90.304,68.495 90.056,68.260 89.871 C 68.025 89.686,67.833 89.481,67.833 89.415 C 67.833 89.296,66.892 88.259,65.917 87.303 C 63.810 85.239,63.358 84.833,63.164 84.833 C 63.043 84.833,62.988 84.789,63.042 84.736 C 63.198 84.580,62.506 83.876,61.986 83.661 C 61.725 83.553,61.465 83.318,61.408 83.139 C 61.351 82.960,61.123 82.731,60.902 82.630 C 60.681 82.529,60.500 82.343,60.500 82.215 C 60.500 82.088,60.279 81.858,60.009 81.703 C 59.739 81.548,59.485 81.295,59.445 81.141 C 59.365 80.835,61.631 78.430,62.656 77.733 C 62.979 77.513,63.177 77.333,63.096 77.333 C 63.015 77.333,63.166 77.146,63.432 76.917 C 63.699 76.688,63.985 76.500,64.069 76.500 C 64.153 76.500,64.174 76.451,64.114 76.392 C 63.995 76.273,64.823 75.501,65.069 75.500 C 65.153 75.500,65.174 75.451,65.114 75.392 C 64.977 75.255,65.645 74.667,65.938 74.667 C 66.060 74.667,66.287 74.460,66.444 74.208 C 66.601 73.956,67.053 73.426,67.448 73.031 C 67.843 72.635,68.167 72.250,68.167 72.176 C 68.167 72.102,68.283 71.945,68.424 71.827 C 68.566 71.709,68.644 71.514,68.597 71.392 C 68.544 71.255,68.677 71.129,68.941 71.062 C 69.227 70.990,69.466 70.741,69.658 70.311 C 69.816 69.958,69.992 69.714,70.049 69.771 C 70.105 69.827,70.324 69.508,70.534 69.062 C 70.744 68.615,71.008 68.175,71.120 68.083 C 71.231 67.992,71.446 67.617,71.597 67.250 C 71.747 66.883,71.956 66.527,72.060 66.458 C 72.195 66.370,72.178 66.286,72.000 66.169 C 71.786 66.029,71.792 66.005,72.042 66.003 C 72.202 66.001,72.333 65.921,72.333 65.823 C 72.333 65.726,72.258 65.693,72.167 65.750 C 72.075 65.807,72.000 65.743,72.000 65.609 C 72.000 65.451,72.112 65.394,72.317 65.447 C 72.563 65.512,72.659 65.416,72.747 65.015 C 72.809 64.732,72.917 64.500,72.988 64.500 C 73.124 64.500,73.833 62.206,73.833 61.764 C 73.833 61.619,73.898 61.500,73.977 61.500 C 74.057 61.500,74.174 61.144,74.239 60.708 C 74.791 57.011,74.823 56.380,74.828 49.208 C 74.831 44.723,74.895 41.833,74.990 41.833 C 75.076 41.833,75.198 41.308,75.261 40.667 C 75.325 40.025,75.439 39.500,75.516 39.500 C 75.593 39.500,75.613 39.388,75.560 39.250 C 75.494 39.079,75.570 39.000,75.802 39.000 C 76.048 39.000,76.217 38.797,76.428 38.244 C 76.586 37.829,76.800 37.435,76.901 37.369 C 77.003 37.304,77.272 36.973,77.498 36.634 C 77.725 36.295,78.081 35.941,78.289 35.846 C 78.497 35.751,78.667 35.597,78.667 35.504 C 78.667 35.410,78.773 35.333,78.903 35.333 C 79.033 35.333,79.164 35.274,79.194 35.200 C 79.256 35.053,80.741 34.333,80.984 34.333 C 81.069 34.333,81.167 34.249,81.201 34.146 C 81.392 33.573,83.246 33.448,92.542 33.379 C 97.560 33.341,101.667 33.254,101.667 33.185 C 101.667 33.117,102.042 32.958,102.500 32.833 C 102.958 32.709,103.333 32.545,103.333 32.470 C 103.333 32.395,103.419 32.333,103.524 32.333 C 103.748 32.333,104.667 31.407,104.667 31.180 C 104.667 31.094,104.773 30.918,104.903 30.788 C 105.588 30.102,105.693 16.155,105.009 16.578 C 104.927 16.628,104.815 16.461,104.758 16.205 C 104.616 15.557,103.559 14.610,102.667 14.331 C 102.254 14.203,101.863 14.019,101.798 13.924 C 101.683 13.756,86.493 13.647,82.625 13.787 M298.708 13.778 C 298.410 13.820,298.167 13.908,298.167 13.974 C 298.167 14.040,297.810 14.197,297.375 14.323 C 296.593 14.550,295.334 15.551,295.333 15.946 C 295.333 16.054,295.212 16.264,295.064 16.412 C 294.134 17.342,294.248 29.886,295.196 30.903 C 295.363 31.083,295.500 31.320,295.500 31.430 C 295.500 31.744,296.599 32.540,297.377 32.790 C 297.765 32.914,298.233 33.086,298.417 33.171 C 298.603 33.257,302.691 33.352,307.667 33.386 C 316.931 33.449,318.370 33.553,319.150 34.222 C 319.444 34.475,320.477 35.000,320.679 35.000 C 320.750 35.000,321.030 35.206,321.302 35.458 C 321.574 35.710,321.898 35.998,322.023 36.098 C 322.535 36.506,323.225 37.465,323.541 38.208 C 323.781 38.772,323.973 39.000,324.207 39.000 C 324.431 39.000,324.505 39.080,324.440 39.250 C 324.387 39.387,324.401 39.500,324.471 39.500 C 324.541 39.500,324.617 39.779,324.640 40.120 C 324.663 40.461,324.764 40.790,324.864 40.852 C 324.969 40.917,324.999 41.147,324.936 41.399 C 324.874 41.644,324.898 41.833,324.989 41.833 C 325.092 41.833,325.171 44.802,325.203 49.875 C 325.255 57.891,325.512 61.500,326.030 61.500 C 326.105 61.500,326.167 61.619,326.167 61.764 C 326.167 62.206,326.876 64.500,327.012 64.500 C 327.083 64.500,327.190 64.728,327.251 65.007 C 327.340 65.410,327.428 65.492,327.681 65.412 C 327.906 65.341,328.000 65.391,328.000 65.582 C 328.000 65.738,327.922 65.804,327.815 65.739 C 327.609 65.611,327.788 66.354,327.999 66.500 C 328.065 66.546,328.276 66.940,328.467 67.375 C 328.658 67.810,328.879 68.167,328.957 68.167 C 329.036 68.167,329.197 68.437,329.317 68.767 C 329.436 69.097,329.657 69.493,329.809 69.647 C 329.960 69.801,330.196 70.143,330.333 70.406 C 330.471 70.670,330.715 70.920,330.875 70.962 C 331.035 71.004,331.167 71.110,331.167 71.196 C 331.167 71.282,331.241 71.307,331.331 71.251 C 331.422 71.195,331.456 71.254,331.407 71.381 C 331.358 71.509,331.434 71.709,331.576 71.827 C 331.717 71.945,331.833 72.096,331.833 72.164 C 331.833 72.274,332.994 73.582,333.792 74.372 C 335.254 75.820,337.590 78.000,337.679 78.000 C 337.741 78.000,338.435 78.648,339.222 79.441 C 340.880 81.110,340.889 80.906,339.077 82.583 C 334.323 86.983,332.167 89.119,332.167 89.427 C 332.167 89.515,331.979 89.728,331.750 89.900 C 331.521 90.073,331.333 90.317,331.333 90.444 C 331.333 90.570,331.146 90.759,330.917 90.864 C 330.688 90.968,330.500 91.140,330.500 91.245 C 330.500 91.351,330.347 91.601,330.160 91.802 C 329.973 92.003,329.880 92.168,329.952 92.169 C 330.024 92.171,330.000 92.227,329.898 92.294 C 329.796 92.362,329.582 92.672,329.422 92.984 C 329.262 93.297,328.996 93.697,328.831 93.874 C 328.667 94.051,328.485 94.442,328.429 94.743 C 328.372 95.044,328.178 95.462,327.996 95.671 C 327.613 96.112,327.586 96.273,327.875 96.390 C 327.990 96.436,327.916 96.480,327.712 96.487 C 327.449 96.496,327.307 96.635,327.228 96.958 C 327.166 97.210,327.060 97.454,326.993 97.500 C 326.831 97.610,326.167 99.858,326.167 100.296 C 326.167 100.484,326.100 100.664,326.017 100.694 C 325.465 100.900,325.179 104.911,325.173 112.542 C 325.168 117.765,325.113 120.000,324.987 120.000 C 324.872 120.000,324.848 120.189,324.921 120.521 C 325.000 120.880,324.966 121.087,324.809 121.187 C 324.622 121.309,324.621 121.358,324.806 121.477 C 324.987 121.594,324.981 121.638,324.777 121.717 C 324.619 121.777,324.559 121.940,324.616 122.156 C 324.665 122.345,324.629 122.500,324.535 122.500 C 324.441 122.500,324.401 122.638,324.445 122.806 C 324.505 123.037,324.435 123.109,324.162 123.098 C 323.889 123.087,323.731 123.250,323.525 123.756 C 323.374 124.126,323.081 124.595,322.875 124.798 C 322.669 125.001,322.500 125.274,322.500 125.405 C 322.500 125.537,322.350 125.692,322.167 125.750 C 321.983 125.808,321.833 125.968,321.833 126.104 C 321.833 126.241,321.758 126.307,321.667 126.250 C 321.575 126.193,321.500 126.214,321.500 126.295 C 321.500 126.376,321.108 126.625,320.629 126.847 C 320.149 127.068,319.640 127.366,319.496 127.507 C 319.352 127.649,318.788 127.864,318.243 127.986 C 317.697 128.107,317.197 128.292,317.131 128.395 C 317.046 128.530,314.308 128.610,307.548 128.677 C 297.709 128.774,297.214 128.811,296.487 129.499 C 296.341 129.637,296.059 129.860,295.861 129.995 C 295.662 130.130,295.500 130.346,295.500 130.476 C 295.500 130.605,295.345 130.845,295.156 131.009 C 294.966 131.174,294.820 131.352,294.830 131.406 C 294.840 131.460,294.770 131.784,294.675 132.127 C 294.264 133.606,294.501 144.993,294.949 145.316 C 295.026 145.371,295.237 145.737,295.419 146.130 C 295.727 146.792,296.403 147.333,296.924 147.333 C 297.038 147.333,297.172 147.440,297.222 147.569 C 297.549 148.423,320.650 148.370,321.744 147.513 C 321.839 147.439,322.650 147.248,323.546 147.089 C 324.442 146.931,325.269 146.707,325.383 146.593 C 325.498 146.478,326.002 146.290,326.504 146.174 C 327.006 146.057,327.585 145.857,327.792 145.727 C 327.998 145.598,328.168 145.550,328.169 145.621 C 328.171 145.692,328.232 145.656,328.305 145.540 C 328.378 145.425,328.827 145.193,329.302 145.026 C 329.777 144.859,330.112 144.668,330.047 144.602 C 329.981 144.536,330.056 144.532,330.213 144.592 C 330.380 144.656,330.500 144.624,330.500 144.514 C 330.500 144.410,330.700 144.249,330.945 144.156 C 331.190 144.063,331.744 143.727,332.176 143.410 C 332.608 143.093,333.085 142.833,333.236 142.833 C 333.387 142.833,333.556 142.715,333.611 142.571 C 333.667 142.426,333.871 142.239,334.064 142.154 C 334.730 141.864,334.842 141.770,337.568 139.206 C 338.080 138.724,338.500 138.223,338.500 138.093 C 338.500 137.962,338.646 137.809,338.825 137.753 C 339.106 137.664,339.443 137.099,339.378 136.826 C 339.366 136.777,339.519 136.724,339.717 136.709 C 340.049 136.684,340.175 136.554,340.202 136.212 C 340.207 136.141,340.351 135.985,340.522 135.866 C 340.693 135.746,340.833 135.574,340.833 135.484 C 340.833 135.393,340.967 135.176,341.131 135.000 C 341.294 134.825,341.530 134.397,341.654 134.049 C 341.778 133.701,341.957 133.367,342.050 133.307 C 342.280 133.159,342.843 131.650,342.734 131.474 C 342.686 131.397,342.783 131.327,342.948 131.320 C 343.123 131.313,343.163 131.272,343.042 131.223 C 342.706 131.088,342.803 130.856,343.156 130.949 C 343.417 131.017,343.512 130.906,343.659 130.363 C 343.758 129.994,343.895 129.668,343.964 129.638 C 344.124 129.568,344.621 127.958,344.765 127.042 C 344.826 126.652,344.935 126.333,345.007 126.333 C 345.079 126.333,345.187 126.015,345.249 125.625 C 345.310 125.235,345.390 124.726,345.426 124.494 C 345.704 122.719,345.831 119.290,345.832 113.542 C 345.833 109.852,345.895 106.833,345.971 106.833 C 346.047 106.833,346.076 106.608,346.036 106.333 C 345.995 106.058,346.037 105.833,346.128 105.833 C 346.375 105.833,346.502 104.938,346.276 104.795 C 346.161 104.721,346.233 104.671,346.458 104.669 C 346.725 104.667,346.833 104.568,346.833 104.323 C 346.833 104.135,346.903 104.023,346.988 104.076 C 347.133 104.166,347.435 103.553,347.370 103.301 C 347.353 103.238,347.526 103.039,347.753 102.861 C 347.981 102.682,348.167 102.469,348.167 102.387 C 348.167 102.219,349.869 100.500,350.036 100.500 C 350.203 100.500,352.667 97.989,352.667 97.818 C 352.667 97.735,352.750 97.667,352.852 97.667 C 353.076 97.667,353.448 97.338,355.347 95.458 C 356.157 94.656,356.873 94.000,356.936 94.000 C 357.000 94.000,357.734 93.330,358.568 92.511 C 359.401 91.691,361.114 90.023,362.373 88.802 C 363.633 87.582,364.664 86.501,364.665 86.401 C 364.666 86.300,364.812 86.050,364.990 85.845 C 365.168 85.640,365.447 84.953,365.610 84.319 C 365.774 83.685,365.966 83.167,366.037 83.167 C 366.108 83.167,366.167 82.154,366.167 80.917 C 366.167 79.679,366.104 78.667,366.027 78.667 C 365.950 78.667,365.786 78.247,365.663 77.735 C 365.540 77.223,365.243 76.491,365.002 76.110 C 364.761 75.729,364.514 75.284,364.453 75.122 C 364.392 74.961,364.163 74.760,363.944 74.677 C 363.725 74.594,363.505 74.371,363.456 74.181 C 363.406 73.992,363.181 73.767,362.956 73.681 C 362.730 73.596,362.505 73.371,362.456 73.181 C 362.406 72.992,362.181 72.767,361.956 72.681 C 361.730 72.596,361.503 72.364,361.452 72.167 C 361.400 71.970,361.205 71.769,361.018 71.720 C 360.831 71.671,360.633 71.489,360.578 71.315 C 360.523 71.142,360.399 71.000,360.304 71.000 C 360.208 71.000,359.424 70.287,358.562 69.417 C 357.700 68.546,356.943 67.833,356.882 67.833 C 356.773 67.833,354.960 66.127,351.727 62.982 C 350.889 62.167,350.157 61.500,350.100 61.500 C 349.866 61.500,347.802 59.238,347.457 58.603 C 347.252 58.226,346.928 57.764,346.738 57.577 C 346.548 57.391,346.420 57.156,346.454 57.055 C 346.487 56.954,346.394 56.751,346.246 56.603 C 346.097 56.455,346.057 56.333,346.155 56.333 C 346.253 56.333,346.333 56.254,346.333 56.157 C 346.333 56.060,346.247 56.033,346.142 56.098 C 346.008 56.181,345.984 56.086,346.062 55.775 C 346.123 55.532,346.103 55.333,346.018 55.333 C 345.926 55.333,345.835 52.085,345.793 47.292 C 345.725 39.421,345.485 35.820,345.010 35.500 C 344.941 35.454,344.837 35.154,344.777 34.833 C 344.589 33.829,344.109 32.333,343.975 32.333 C 343.904 32.333,343.768 32.045,343.673 31.692 C 343.578 31.339,343.281 30.821,343.013 30.540 C 342.745 30.259,342.567 29.989,342.617 29.939 C 342.667 29.889,342.549 29.577,342.354 29.247 C 342.159 28.917,342.093 28.694,342.208 28.752 C 342.323 28.810,342.299 28.759,342.155 28.637 C 342.011 28.516,341.712 28.042,341.489 27.583 C 341.266 27.125,340.986 26.688,340.866 26.612 C 340.746 26.535,340.579 26.290,340.494 26.067 C 340.409 25.843,340.150 25.589,339.920 25.501 C 339.689 25.413,339.499 25.246,339.498 25.129 C 339.492 24.549,335.464 20.507,334.886 20.502 C 334.778 20.501,334.647 20.367,334.596 20.205 C 334.544 20.043,334.145 19.725,333.709 19.497 C 333.273 19.270,332.892 19.027,332.861 18.958 C 332.831 18.890,332.699 18.833,332.569 18.833 C 332.440 18.833,332.333 18.758,332.333 18.667 C 332.333 18.575,332.200 18.500,332.037 18.500 C 331.874 18.500,331.632 18.350,331.500 18.167 C 331.368 17.983,331.161 17.833,331.040 17.833 C 330.918 17.833,330.658 17.683,330.462 17.500 C 330.265 17.317,329.930 17.167,329.719 17.167 C 329.507 17.167,329.333 17.109,329.333 17.039 C 329.333 16.968,328.883 16.732,328.333 16.514 C 327.783 16.295,327.333 16.044,327.333 15.955 C 327.333 15.867,327.183 15.834,327.000 15.882 C 326.817 15.930,326.667 15.901,326.667 15.818 C 326.667 15.735,326.550 15.667,326.406 15.667 C 326.000 15.667,324.429 15.128,324.308 14.947 C 324.249 14.858,324.067 14.836,323.905 14.898 C 323.743 14.960,323.566 14.942,323.513 14.858 C 323.406 14.688,320.572 14.167,319.754 14.167 C 319.468 14.167,319.141 14.075,319.029 13.962 C 318.826 13.760,300.037 13.589,298.708 13.778 M351.875 13.784 C 351.577 13.823,351.333 13.908,351.333 13.974 C 351.333 14.040,351.010 14.189,350.616 14.306 C 349.603 14.605,348.643 15.553,348.104 16.788 L 347.651 17.827 347.700 23.858 C 347.739 28.499,347.798 29.905,347.958 29.958 C 348.073 29.997,348.167 30.138,348.167 30.272 C 348.167 31.240,350.153 33.000,351.244 33.000 C 351.385 33.000,351.500 33.075,351.500 33.167 C 351.500 33.276,356.083 33.333,364.917 33.333 L 378.333 33.333 378.333 81.000 L 378.333 128.667 365.151 128.667 C 351.726 128.667,350.167 128.735,350.167 129.320 C 350.167 129.391,349.869 129.584,349.505 129.748 C 348.860 130.038,348.167 130.993,348.167 131.588 C 348.167 131.723,348.083 131.833,347.981 131.833 C 347.877 131.833,347.833 131.980,347.882 132.167 C 347.930 132.350,347.898 132.500,347.812 132.500 C 347.715 132.500,347.681 134.823,347.723 138.542 C 347.791 144.648,347.806 145.000,347.993 145.000 C 348.050 145.000,348.274 145.403,348.491 145.896 C 348.815 146.632,349.007 146.846,349.568 147.092 C 349.943 147.256,350.325 147.481,350.417 147.591 C 350.869 148.133,352.083 148.167,371.059 148.167 C 391.280 148.167,391.458 148.160,393.117 147.344 C 393.502 147.155,393.888 147.000,393.974 147.000 C 394.061 147.000,394.308 146.814,394.524 146.586 C 394.740 146.359,395.006 146.171,395.116 146.170 C 395.225 146.168,395.412 146.028,395.532 145.858 C 395.652 145.689,395.881 145.570,396.042 145.594 C 396.202 145.618,396.333 145.562,396.333 145.469 C 396.333 145.377,396.633 144.960,397.000 144.544 C 397.367 144.127,397.667 143.690,397.667 143.572 C 397.667 143.454,397.764 143.258,397.884 143.137 C 398.236 142.779,398.686 141.491,398.578 141.149 C 398.523 140.975,398.556 140.833,398.651 140.833 C 398.755 140.833,398.785 140.633,398.725 140.333 C 398.647 139.942,398.684 139.833,398.896 139.833 C 399.045 139.833,399.167 139.758,399.167 139.667 C 399.167 139.575,399.092 139.500,399.000 139.500 C 398.889 139.500,398.833 119.858,398.833 80.907 C 398.833 41.887,398.889 22.348,399.000 22.417 C 399.092 22.473,399.167 22.440,399.167 22.343 C 399.167 22.246,399.046 22.167,398.898 22.167 C 398.694 22.167,398.647 22.046,398.702 21.667 C 398.743 21.392,398.724 21.167,398.661 21.167 C 398.597 21.167,398.545 20.865,398.545 20.496 C 398.545 20.035,398.383 19.564,398.023 18.985 C 397.735 18.523,397.500 18.092,397.500 18.027 C 397.500 17.823,396.062 16.333,395.866 16.333 C 395.763 16.333,395.598 16.183,395.500 16.000 C 395.402 15.817,395.247 15.667,395.157 15.667 C 395.066 15.667,394.633 15.419,394.193 15.117 C 393.754 14.815,392.950 14.463,392.406 14.335 C 391.862 14.207,391.363 14.023,391.298 13.926 C 391.182 13.755,353.155 13.617,351.875 13.784 M107.167 65.003 C 107.167 65.068,106.979 65.085,106.750 65.041 C 106.507 64.994,106.333 65.039,106.333 65.147 C 106.333 65.250,106.225 65.333,106.093 65.333 C 105.806 65.333,104.667 65.984,104.667 66.147 C 104.667 66.210,104.442 66.394,104.167 66.557 C 103.892 66.719,103.667 66.951,103.667 67.072 C 103.667 67.193,103.554 67.386,103.417 67.500 C 103.279 67.614,103.167 67.848,103.167 68.020 C 103.167 68.193,103.083 68.333,102.981 68.333 C 102.876 68.333,102.833 68.480,102.882 68.667 C 102.930 68.851,102.899 68.957,102.814 68.905 C 102.719 68.846,102.676 72.525,102.704 78.432 C 102.740 85.950,102.796 88.071,102.958 88.125 C 103.073 88.163,103.167 88.341,103.167 88.519 C 103.167 88.698,103.279 88.887,103.417 88.940 C 103.554 88.992,103.667 89.173,103.667 89.342 C 103.667 89.510,103.892 89.781,104.167 89.943 C 104.442 90.106,104.667 90.290,104.667 90.353 C 104.667 90.516,105.806 91.167,106.093 91.167 C 106.225 91.167,106.333 91.250,106.333 91.353 C 106.333 91.461,106.507 91.506,106.750 91.459 C 106.979 91.415,107.167 91.432,107.167 91.497 C 107.167 91.561,148.942 91.614,200.000 91.613 C 251.058 91.613,292.833 91.560,292.833 91.496 C 292.833 91.432,293.021 91.400,293.250 91.425 C 293.479 91.450,293.667 91.402,293.667 91.319 C 293.667 91.235,293.773 91.167,293.903 91.167 C 294.188 91.167,295.164 90.629,295.166 90.472 C 295.166 90.411,295.429 90.198,295.750 90.000 C 296.071 89.802,296.333 89.542,296.333 89.423 C 296.333 89.305,296.446 89.114,296.583 89.000 C 296.721 88.886,296.833 88.658,296.833 88.493 C 296.833 88.329,296.927 88.163,297.042 88.125 C 297.347 88.023,297.347 68.477,297.042 68.375 C 296.927 68.337,296.833 68.173,296.833 68.012 C 296.833 67.850,296.685 67.584,296.504 67.420 C 296.323 67.256,296.212 67.062,296.257 66.989 C 296.302 66.916,296.113 66.722,295.836 66.559 C 295.560 66.395,295.333 66.210,295.333 66.147 C 295.333 65.984,294.194 65.333,293.907 65.333 C 293.775 65.333,293.667 65.250,293.667 65.147 C 293.667 65.039,293.493 64.994,293.250 65.041 C 293.021 65.085,292.833 65.068,292.833 65.003 C 292.833 64.939,251.058 64.886,200.000 64.886 C 148.942 64.886,107.167 64.939,107.167 65.003 " stroke="none" fill="#c46c34" fill-rule="evenodd"></path><path id="path1" d="M0.959 80.917 C 0.936 113.138,0.973 139.500,1.042 139.500 C 1.110 139.500,1.167 113.138,1.167 80.917 C 1.167 48.696,1.129 22.333,1.084 22.333 C 1.038 22.333,0.982 48.696,0.959 80.917 M398.833 80.907 C 398.833 119.858,398.889 139.500,399.000 139.500 C 399.111 139.500,399.167 119.892,399.167 81.010 C 399.167 42.196,399.111 22.485,399.000 22.417 C 398.889 22.348,398.833 41.887,398.833 80.907 " stroke="none" fill="#c4742f" fill-rule="evenodd"></path></g></svg>